<svg version="1.1" xmlns="http://www.w3.org/2000/svg" xmlns:xlink="http://www.w3.org/1999/xlink" x="0px" y="0px" viewBox="0 0 1000 1000" enable-background="new 0 0 1000 1000" xml:space="preserve">
  <metadata> Svg Vector Icons : http://www.onlinewebfonts.com/icon </metadata>
  <g>
    <path d="M500,10C229.4,10,10,229.4,10,500c0,270.6,219.4,490,490,490c270.6,0,490-219.4,490-490C990,229.4,770.6,10,500,10z M501.5,950.4c-246.9,0-447.1-200.2-447.1-447.1c0-247,200.2-447.1,447.1-447.1c246.9,0,447.1,200.2,447.1,447.1C948.6,750.2,748.4,950.4,501.5,950.4z" fill="white"/>
    <path d="M612.7,308.4c-43.8,0-85.1,19.7-112.7,51.6c-27.6-31.9-68.9-51.6-112.7-51.6c-77.7,0-137.7,59-137.7,135.1c0,93.4,85.1,168.3,214.1,283.7l36.3,31.9l36.3-31.9c129-115.5,214.1-190.4,214.1-283.7C750.4,367.4,690.4,308.4,612.7,308.4L612.7,308.4z M515.5,695l-5.1,4.5l-10.4,9.1l-10.4-9.1l-5.1-4.5c-60.7-54.3-113.1-101.3-147.8-143.2c-33.7-40.8-48.7-74.1-48.7-108.2c0-26.8,10.2-51.6,28.6-69.6c18.3-18,43.4-27.9,70.7-27.9c31.5,0,62.6,14.3,83.2,38.2l29.5,34.2l29.5-34.2c20.6-23.9,51.8-38.2,83.2-38.2c27.2,0,52.3,9.9,70.7,27.9c18.4,18.1,28.6,42.8,28.6,69.6c0,34.1-15,67.5-48.7,108.2C628.6,593.7,576.2,640.6,515.5,695L515.5,695z" fill="white"/>
  </g>
</svg>
