<svg width="40" height="40" viewBox="0 0 40 40" fill="none" xmlns="http://www.w3.org/2000/svg">
<g id="clarity:upload-cloud-line">
<path id="Vector" d="M33.6778 14.4444V14.0889C33.6021 11.0789 32.3386 8.22107 30.1632 6.13935C27.9878 4.05763 25.0772 2.92107 22.0667 2.97778C19.8247 2.95948 17.6251 3.58947 15.7328 4.79192C13.8404 5.99437 12.3358 7.71806 11.4001 9.75556C8.76539 10.0495 6.33024 11.3002 4.55659 13.2705C2.78293 15.2407 1.79415 17.7935 1.77783 20.4444C1.78075 21.8491 2.06048 23.2393 2.60103 24.5358C3.14159 25.8322 3.93237 27.0094 4.92817 28.0001C5.92397 28.9907 7.10525 29.7754 8.40449 30.3092C9.70372 30.843 11.0954 31.1155 12.5001 31.1111H16.6667V28.8889H12.5001C10.3524 28.7727 8.32872 27.8466 6.83682 26.2974C5.34492 24.7482 4.49578 22.691 4.46055 20.5405C4.42532 18.3901 5.20662 16.3062 6.64697 14.7089C8.08732 13.1117 10.0796 12.1199 12.2223 11.9333H12.9667L13.2223 11.2333C13.9114 9.44348 15.1334 7.90832 16.723 6.83529C18.3127 5.76226 20.1935 5.20308 22.1112 5.23333C24.5323 5.17645 26.8778 6.07885 28.6365 7.74388C30.3952 9.4089 31.4245 11.7016 31.5001 14.1222C31.5154 14.4183 31.5154 14.715 31.5001 15.0111L31.4112 15.8111L32.1334 16.1444C33.5302 16.7737 34.6677 17.865 35.3545 19.2345C36.0412 20.604 36.2352 22.1683 35.904 23.6641C35.5728 25.16 34.7364 26.4961 33.5357 27.4476C32.3349 28.3992 30.8431 28.9082 29.3112 28.8889H23.3334V31.1111H29.3112C31.2872 31.1253 33.2117 30.4806 34.7804 29.2788C36.3492 28.0771 37.4728 26.3869 37.9736 24.4753C38.4744 22.5637 38.324 20.5397 37.546 18.7231C36.7681 16.9066 35.407 15.401 33.6778 14.4444Z" fill="#A1A6AB"/>
<path id="Vector_2" d="M24.7555 24.2778C24.9772 24.2813 25.1948 24.2185 25.3804 24.0973C25.5661 23.9762 25.7112 23.8023 25.7973 23.598C25.8833 23.3937 25.9062 23.1683 25.8632 22.9509C25.8201 22.7334 25.7129 22.5338 25.5555 22.3778L20 16.8222L14.4444 22.3778C14.2624 22.5903 14.1673 22.8638 14.1781 23.1434C14.1889 23.423 14.3048 23.6883 14.5027 23.8862C14.7006 24.0841 14.9658 24.2 15.2455 24.2108C15.5251 24.2216 15.7985 24.1265 16.0111 23.9444L18.8889 21.1111V34.7222C18.8889 35.0169 19.0059 35.2995 19.2143 35.5079C19.4227 35.7163 19.7053 35.8333 20 35.8333C20.2947 35.8333 20.5773 35.7163 20.7857 35.5079C20.994 35.2995 21.1111 35.0169 21.1111 34.7222V21.1111L23.9666 23.9667C24.1781 24.1706 24.4618 24.2824 24.7555 24.2778Z" fill="#A1A6AB"/>
</g>
</svg>
