<svg width="60" height="60" viewBox="0 0 60 60" fill="none" xmlns="http://www.w3.org/2000/svg">
<g id="basil:bag-solid">
<path id="Vector" fill-rule="evenodd" clip-rule="evenodd" d="M18.125 13.6525V17.2025L13.89 17.5475C12.4351 17.6646 11.0614 18.2661 9.98866 19.2559C8.91591 20.2458 8.20602 21.5667 7.97248 23.0075C7.86998 23.6525 7.77248 24.2975 7.68748 24.945C7.66725 25.1015 7.69726 25.2605 7.7732 25.3989C7.84913 25.5373 7.96707 25.648 8.10998 25.715L8.30248 25.805C21.875 32.23 38.1275 32.23 51.6975 25.805L51.89 25.715C52.0324 25.6476 52.1498 25.5367 52.2253 25.3984C52.3008 25.26 52.3304 25.1013 52.31 24.945C52.2253 24.2978 52.1311 23.6519 52.0275 23.0075C51.794 21.5667 51.0841 20.2458 50.0113 19.2559C48.9386 18.2661 47.5649 17.6646 46.11 17.5475L41.875 17.205V13.655C41.8752 12.6071 41.4994 11.594 40.8158 10.7998C40.1322 10.0056 39.1862 9.48318 38.15 9.3275L35.1 8.87C31.7189 8.36275 28.2811 8.36275 24.9 8.87L21.85 9.3275C20.8142 9.48311 19.8686 10.0052 19.185 10.7988C18.5015 11.5925 18.1253 12.6051 18.125 13.6525ZM34.5425 12.5775C31.531 12.1258 28.469 12.1258 25.4575 12.5775L22.4075 13.035C22.2595 13.0571 22.1244 13.1316 22.0267 13.2449C21.929 13.3583 21.8751 13.5029 21.875 13.6525V16.94C27.2872 16.63 32.7128 16.63 38.125 16.94V13.6525C38.1248 13.5029 38.071 13.3583 37.9733 13.2449C37.8756 13.1316 37.7405 13.0571 37.5925 13.035L34.5425 12.5775Z" fill="#F28A1F"/>
<path id="Vector_2" d="M52.795 30.175C52.79 30.0942 52.7655 30.0158 52.7235 29.9465C52.6816 29.8773 52.6234 29.8192 52.5541 29.7774C52.4847 29.7356 52.4062 29.7113 52.3254 29.7065C52.2446 29.7017 52.1638 29.7167 52.09 29.75C38.1625 35.9175 21.8375 35.9175 7.90998 29.75C7.83619 29.7167 7.7554 29.7017 7.67456 29.7065C7.59372 29.7113 7.51525 29.7356 7.4459 29.7774C7.37655 29.8192 7.31839 29.8773 7.27642 29.9465C7.23445 30.0158 7.20994 30.0942 7.20498 30.175C6.94948 34.9612 7.20678 39.761 7.97248 44.4925C8.20601 45.9333 8.91591 47.2542 9.98865 48.2441C11.0614 49.2339 12.4351 49.8354 13.89 49.9525L18.57 50.3325C26.1775 50.945 33.82 50.945 41.43 50.3325L46.11 49.955C47.5653 49.8378 48.9392 49.2359 50.012 48.2456C51.0848 47.2553 51.7945 45.9338 52.0275 44.4925C52.7925 39.755 53.0525 34.955 52.795 30.1775V30.175Z" fill="#F28A1F"/>
</g>
</svg>
