<svg width="60" height="60" viewBox="0 0 60 60" fill="none" xmlns="http://www.w3.org/2000/svg">
<g id="ic:round-work-history">
<path id="Vector" d="M45 27.5C48.725 27.5 52.175 28.675 55 30.65V20C55 17.225 52.775 15 50 15H40V10C40 7.225 37.775 5 35 5H25C22.225 5 20 7.225 20 10V15H10C7.225 15 5.025 17.225 5.025 20L5 47.5C5 50.275 7.225 52.5 10 52.5H29.2C27.9316 49.8338 27.3589 46.8898 27.5354 43.9426C27.7118 40.9953 28.6315 38.1407 30.2089 35.6448C31.7863 33.149 33.97 31.0931 36.5563 29.6689C39.1426 28.2448 42.0475 27.4986 45 27.5ZM25 10H35V15H25V10Z" fill="#0D9CA4"/>
<path id="Vector_2" d="M45 32.5C38.1 32.5 32.5 38.1 32.5 45C32.5 51.9 38.1 57.5 45 57.5C51.9 57.5 57.5 51.9 57.5 45C57.5 38.1 51.9 32.5 45 32.5ZM49.125 50.875L43.75 45.5V37.5H46.25V44.475L50.875 49.1L49.125 50.875Z" fill="#0D9CA4"/>
</g>
</svg>
