<svg width="60" height="60" viewBox="0 0 60 60" fill="none" xmlns="http://www.w3.org/2000/svg">
<g id="material-symbols:work-update-rounded">
<path id="Vector" d="M25 15H35V10H25V15ZM45 57.5C41.5417 57.5 38.5933 56.2808 36.155 53.8425C33.7167 51.4042 32.4983 48.4567 32.5 45C32.5 41.5417 33.7192 38.5933 36.1575 36.155C38.5958 33.7167 41.5433 32.4983 45 32.5C48.4583 32.5 51.4067 33.7192 53.845 36.1575C56.2833 38.5958 57.5017 41.5433 57.5 45C57.5 48.4583 56.2808 51.4067 53.8425 53.845C51.4042 56.2833 48.4567 57.5017 45 57.5ZM10 52.5C8.625 52.5 7.4475 52.01 6.4675 51.03C5.4875 50.05 4.99834 48.8733 5 47.5V20C5 18.625 5.49 17.4475 6.47 16.4675C7.45 15.4875 8.62667 14.9983 10 15H20V10C20 8.625 20.49 7.4475 21.47 6.4675C22.45 5.4875 23.6267 4.99834 25 5H35C36.375 5 37.5525 5.49 38.5325 6.47C39.5125 7.45 40.0017 8.62667 40 10V15H50C51.375 15 52.5525 15.49 53.5325 16.47C54.5125 17.45 55.0017 18.6267 55 20V30.6875C53.5417 29.6458 51.9583 28.8542 50.25 28.3125C48.5417 27.7708 46.7917 27.5 45 27.5C40.1667 27.5 36.0417 29.2083 32.625 32.625C29.2083 36.0417 27.5 40.1667 27.5 45C27.5 46.2917 27.6358 47.5733 27.9075 48.845C28.1792 50.1167 28.6058 51.335 29.1875 52.5H10ZM43.75 47.75L40.125 44.125C39.875 43.875 39.5833 43.75 39.25 43.75C38.9167 43.75 38.625 43.875 38.375 44.125C38.125 44.375 38 44.6667 38 45C38 45.3333 38.125 45.625 38.375 45.875L43.25 50.75C43.75 51.25 44.3333 51.5 45 51.5C45.6667 51.5 46.25 51.25 46.75 50.75L51.625 45.875C51.875 45.625 52 45.3333 52 45C52 44.6667 51.875 44.375 51.625 44.125C51.375 43.875 51.0833 43.75 50.75 43.75C50.4167 43.75 50.125 43.875 49.875 44.125L46.25 47.75V38.75C46.25 38.4167 46.125 38.125 45.875 37.875C45.625 37.625 45.3333 37.5 45 37.5C44.6667 37.5 44.375 37.625 44.125 37.875C43.875 38.125 43.75 38.4167 43.75 38.75V47.75Z" fill="#FF5656"/>
</g>
</svg>
