<svg viewBox="0 0 100 100" xml:space="preserve" xmlns="http://www.w3.org/2000/svg" enable-background="new 0 0 100 100"><path d="M45.1 43c.6 0 1-.4 1-1 0-2.2-1.8-4-4-4s-4 1.8-4 4c0 .6.4 1 1 1s1-.4 1-1c0-1.1.9-2 2-2s2 .9 2 2c0 .6.5 1 1 1zM56 50.4c.2-.5 0-1.1-.4-1.3-.5-.2-1.1 0-1.3.4-.8 1.5-2.3 2.4-4.1 2.4s-3.4-.9-4.1-2.4c-.2-.5-.8-.7-1.3-.4-.5.2-.7.8-.4 1.3 1.1 2.2 3.4 3.6 5.9 3.6s4.6-1.4 5.7-3.6zM55.1 43c.6 0 1-.4 1-1 0-1.1.9-2 2-2s2 .9 2 2c0 .6.4 1 1 1s1-.4 1-1c0-2.2-1.8-4-4-4s-4 1.8-4 4c0 .6.5 1 1 1z" fill="#f28a1f" class="fill-000000"></path><path d="M89.4 80.5c-.9-5.1-4.7-9.1-9.8-10.2l-21.6-5V60c5.4-2.9 9-8.5 9-15h1c2.8 0 5-2.2 5-5 0-1.3-.5-2.5-1.3-3.4C73 36 74 34.6 74 33c0-1.9-1.3-3.4-3-3.9v-3c0-5.3-2.2-10.3-6-13.9V9c0-1.7-1.3-3-3-3-1.4 0-2.6 1-2.9 2.4-1.6-.6-3.3-1.1-5.1-1.2V7c0-1.7-1.3-3-3-3h-2c-1.7 0-3 1.3-3 3v.2c-1.7.2-3.4.6-5.1 1.3C40.7 7.1 39.5 6 38 6c-1.7 0-3 1.3-3 3v3.2c-3.8 3.6-6 8.6-6 13.9v3c-1.7.4-3 2-3 3.9 0 1.6 1 3 2.3 3.6-.8.9-1.3 2.1-1.3 3.4 0 2.8 2.2 5 5 5h1c0 6.5 3.7 12.1 9 15v5.2l-21.6 5c-5 1.2-8.8 5.2-9.8 10.2L8 94.8c-.1.3 0 .6.2.8.2.3.5.4.8.4h82c.3 0 .6-.1.8-.4.2-.2.3-.5.2-.8l-2.6-14.3zM72 90H56c-.6 0-1 .4-1 1v3h-4v-7c8.9-.2 18-3.4 18-10v-7.2l8 1.9V94h-4v-3c0-.6-.4-1-1-1zm-28 0H28c-.6 0-1 .4-1 1v3h-4V71.7l8-1.9V77c0 3.2 2.2 5.9 6.2 7.7 3.2 1.4 7.3 2.2 11.8 2.3v7h-4v-3c0-.6-.4-1-1-1zm.7-20.1c1.4.7 3.3 1.1 5.3 1.1 3.4 0 7-1.2 7.8-3.8l3.2.8c0 3.9-5.5 6-11 6s-11-2.1-11-6l3.2-.7c.4 1 1.2 1.9 2.5 2.6zm-3.4 4.2c2.3 1.2 5.4 1.9 8.7 1.9 6.1 0 12.6-2.4 13-7.6l4 .9V77c0 5.3-8.6 8-17 8s-17-2.7-17-8v-7.6l4-.9c.2 2.3 1.6 4.3 4.3 5.6zM68 43h-1v-6h1c1.7 0 3 1.3 3 3s-1.3 3-3 3zm1-16.9V29h-6v-6h1c.6 0 1-.4 1-1v-6.8c2.6 3 4 6.9 4 10.9zM62 8c.6 0 1 .4 1 1v12h-2V9c0-.6.4-1 1-1zm-12 9c2.2 0 4 1.8 4 4s-1.8 4-4 4-4-1.8-4-4 1.8-4 4-4zM49 6h2c.6 0 1 .4 1 1v8.4c-.6-.2-1.3-.4-2-.4s-1.4.1-2 .4V7c0-.6.4-1 1-1zm-3 10.5c-1.2 1.1-2 2.7-2 4.5 0 3.3 2.7 6 6 6s6-2.7 6-6c0-1.8-.8-3.4-2-4.5V9.1c1.7.2 3.4.7 5 1.4V22c0 .6.4 1 1 1h1v6H39v-6h1c.6 0 1-.4 1-1V10.6c1.6-.7 3.3-1.2 5-1.5v7.4zM37 9c0-.6.4-1 1-1s1 .4 1 1v12h-2V9zm-6 17.1c0-4 1.4-7.9 4-11V22c0 .6.4 1 1 1h1v6h-6v-2.9zM30 31h40c1.1 0 2 .9 2 2s-.9 2-2 2H30c-1.1 0-2-.9-2-2s.9-2 2-2zm2 12c-1.7 0-3-1.3-3-3s1.3-3 3-3h1v6h-1zm3 2v-8h30v8c0 8.3-6.7 15-15 15s-15-6.7-15-15zm15 17c2.1 0 4.1-.4 6-1.1V66c0 1.9-3.1 3-6 3s-6-1.1-6-3v-5.1c1.9.7 3.9 1.1 6 1.1zM12.6 80.9c.8-4.3 4-7.7 8.2-8.7h.2V94H10.2l2.4-13.1zM29 94v-2h14v2H29zm28 0v-2h14v2H57zm22 0V72.2h.2c4.2 1 7.5 4.4 8.2 8.7L89.8 94H79z" fill="#f28a1f" class="fill-000000"></path></svg>