<svg id="Layer_1" version="1.1" viewBox="0 0 512 512" xml:space="preserve" xmlns="http://www.w3.org/2000/svg" enable-background="new 0 0 512 512"><path d="M400.28 202.67H112.09a8.04 8.04 0 0 1-8.04-8.04V31.27c0-4.44 3.6-8.04 8.04-8.04l288.73-.05c2.14 0 4.19.85 5.69 2.36a8.05 8.05 0 0 1 2.35 5.71l-.54 163.41c-.01 4.42-3.61 8.01-8.04 8.01zm-280.15-16.08h272.13l.49-147.32-272.62.05v147.27z" fill="#ffffff" class="fill-000000"></path><path d="M256.59 488.82a8.01 8.01 0 0 1-6.09-2.8L-4.84 189.07a8.045 8.045 0 0 1 .86-11.34c3.36-2.89 8.45-2.51 11.34.86L256.6 468.44l249.09-289.89c2.91-3.37 7.99-3.74 11.34-.86 3.37 2.89 3.75 7.97.86 11.34L262.7 486.02a8.05 8.05 0 0 1-6.11 2.8z" fill="#ffffff" class="fill-000000"></path><path d="M398.71 205.66c-2.29 0-4.5-.98-6.03-2.72L254.62 46.42 116.55 202.94c-1.69 1.91-4.21 2.89-6.73 2.69L1.81 196.27a12.25 12.25 0 0 1-10.13-7.21c-1.81-4.06-1.28-8.8 1.4-12.36L104.1 29.42c2.67-3.55 7.71-4.27 11.26-1.58 3.55 2.67 4.25 7.72 1.58 11.26L10.1 180.84l97.07 8.41L248.58 28.94c3.05-3.46 9.02-3.46 12.06 0l141.41 160.32 102.58-8.84c0-.01.01-.02.01-.02L394.75 36.18c-2.69-3.53-2.01-8.58 1.52-11.27 3.55-2.69 8.58-2.01 11.27 1.52l112.19 147.23a7.968 7.968 0 0 1 1.52 6.27c-1.81 10.24-6.25 15.74-13.2 16.34l-108.65 9.36c-.23.02-.46.03-.69.03z" fill="#ffffff" class="fill-000000"></path><path d="M256.52 472.36c-2.96 0-5.69-1.63-7.09-4.24L105 198.42c-2.1-3.91-.62-8.79 3.29-10.88 3.92-2.1 8.79-.62 10.88 3.29l137.3 256.38L393.21 189a8.043 8.043 0 0 1 10.87-3.35c3.93 2.08 5.43 6.95 3.35 10.87l-143.8 271.56a8.046 8.046 0 0 1-7.09 4.28h-.02z" fill="#ffffff" class="fill-000000"></path></svg>