<svg data-name="Слой 1" viewBox="0 0 32 32" xmlns="http://www.w3.org/2000/svg"><path d="M4.054 26.88h8.168a.47.47 0 1 0 0-.94H4.525V12.522L16 6.129l11.475 6.393v13.417h-7.69a.47.47 0 1 0 0 .94h8.16a.47.47 0 0 0 .471-.47V12.245a.47.47 0 0 0-.242-.41L16.23 5.18a.47.47 0 0 0-.457 0L3.826 11.835a.47.47 0 0 0-.243.41V26.41a.47.47 0 0 0 .471.47Z" fill="#ffffff" class="fill-000000"></path><path d="M15.786 26.822a.456.456 0 0 0 .214.058h.002l.01-.002a.46.46 0 0 0 .2-.054c.008-.004.018-.003.027-.007a8.681 8.681 0 0 0 0-15.033.471.471 0 0 0-.471 0 8.697 8.697 0 0 0-3.93 4.927.46.46 0 0 0-.057.165 8.607 8.607 0 0 0-.358 2.424 8.703 8.703 0 0 0 4.345 7.517c.006.003.013.002.018.005Zm.685-1.298v-2.79l3.094-2.416a7.767 7.767 0 0 1-3.094 5.206Zm-.468-12.784a7.762 7.762 0 0 1 3.618 6.342l-3.15 2.46v-4.873a.47.47 0 0 0-.941 0v2.241l-2.726-2.127a7.75 7.75 0 0 1 3.2-4.043Zm-3.638 6.56a7.643 7.643 0 0 1 .17-1.535l2.995 2.338v5.417a7.75 7.75 0 0 1-3.165-6.22Z" fill="#ffffff" class="fill-000000"></path></svg>