<svg viewBox="0 0 512 512" xml:space="preserve" xmlns="http://www.w3.org/2000/svg"><path d="M504.984 478.912 361.365 335.271c28.868-34.715 46.246-79.299 46.246-127.965C407.611 96.672 317.939 7 207.306 7 96.692 7 7 96.672 7 207.306c0 110.608 89.692 200.301 200.306 200.301 48.676 0 93.256-17.379 127.972-46.248L478.896 505l26.088-26.088zM28.085 207.306c0-98.825 80.386-179.221 179.221-179.221 98.815 0 179.221 80.396 179.221 179.221 0 98.831-80.405 179.215-179.221 179.215-98.835 0-179.221-80.384-179.221-179.215z" fill="#ffffff" class="fill-425661"></path><path fill="#ffffff" d="M105.181 197.438H305.91v21.084H105.181z" class="fill-425661"></path><path fill="#ffffff" d="M195.003 107.615h21.084v200.729h-21.084z" class="fill-425661"></path></svg>