<svg viewBox="0 0 32 32" xmlns="http://www.w3.org/2000/svg"><g data-name="Layer 2"><path d="M16 17.5a7.5 7.5 0 1 1 7.5-7.5 7.5 7.5 0 0 1-7.5 7.5Zm0-14a6.5 6.5 0 1 0 6.5 6.5A6.51 6.51 0 0 0 16 3.5Z" fill="#ffffff" class="fill-000000"></path><path d="M26 28.5H6a.5.5 0 0 1-.5-.5v-6a.68.68 0 0 1 0-.14c.48-1.66 2-2.81 3.4-3.82.33-.25.64-.48.93-.72a.51.51 0 0 1 .68.05A7.17 7.17 0 0 0 16 19.5a7.11 7.11 0 0 0 5.45-2.13.51.51 0 0 1 .68-.05c.29.24.6.47.93.71 1.37 1 2.92 2.17 3.4 3.83a.68.68 0 0 1 0 .14v6a.5.5 0 0 1-.46.5Zm-19.5-1h19v-5.43c-.41-1.3-1.79-2.33-3-3.23l-.61-.46A8.24 8.24 0 0 1 16 20.5a8.29 8.29 0 0 1-5.89-2.12l-.62.46c-1.22.9-2.6 1.93-3 3.23Z" fill="#ffffff" class="fill-000000"></path></g></svg>