<svg data-name="Design Convert" viewBox="0 0 64 64" xmlns="http://www.w3.org/2000/svg"><path d="M32 57a25 25 0 1 1 25-25 25 25 0 0 1-25 25Zm0-48a23 23 0 1 0 23 23A23 23 0 0 0 32 9Z" fill="#ffffff" class="fill-010101"></path><path d="M32 57c-7.29 0-13-11-13-25S24.71 7 32 7s13 11 13 25-5.71 25-13 25Zm0-48c-6 0-11 10.53-11 23s5 23 11 23 11-10.53 11-23S38 9 32 9Z" fill="#ffffff" class="fill-010101"></path><path d="M51 47.66a1 1 0 0 1-.54-.16C46 44.64 39.29 43 32 43s-14 1.64-18.45 4.5a1 1 0 1 1-1.08-1.68C17.22 42.76 24.34 41 32 41s14.78 1.76 19.53 4.82a1 1 0 0 1-.53 1.84ZM32 23c-7.66 0-14.78-1.76-19.53-4.82a1 1 0 1 1 1.08-1.68C18 19.36 24.71 21 32 21s14-1.64 18.45-4.5a1 1 0 1 1 1.08 1.68C46.78 21.24 39.66 23 32 23ZM56 33H8a1 1 0 0 1 0-2h48a1 1 0 0 1 0 2Z" fill="#ffffff" class="fill-010101"></path><path d="M32 57a1 1 0 0 1-1-1V8a1 1 0 0 1 2 0v48a1 1 0 0 1-1 1Z" fill="#ffffff" class="fill-010101"></path></svg>