<svg width="53" height="53" viewBox="0 0 53 53" fill="none" xmlns="http://www.w3.org/2000/svg">
<g id="mdi:account-hard-hat-outline">
<path id="Vector" d="M35.3333 19.8751C35.3333 31.6455 17.6667 31.6455 17.6667 19.8751H22.0833C22.0833 25.7713 30.9167 25.7713 30.9167 19.8751M44.1667 39.7501V46.3751H8.83334V39.7501C8.83334 33.8538 20.6038 30.9167 26.5 30.9167C32.3963 30.9167 44.1667 33.8538 44.1667 39.7501ZM39.9708 39.7501C39.9708 38.3368 33.0588 35.1126 26.5 35.1126C19.9413 35.1126 13.0292 38.3368 13.0292 39.7501V42.1793H39.9708M27.6042 4.41675C28.2225 4.41675 28.7083 4.90258 28.7083 5.52091V12.1459H30.9167V6.62508C32.4795 7.34836 33.7889 8.52467 34.6749 10.0014C35.561 11.4781 35.9827 13.187 35.8854 14.9063C35.8854 14.9063 37.4313 15.2155 37.5417 17.6667H15.4583C15.4583 15.2155 17.1146 14.9063 17.1146 14.9063C17.0173 13.187 17.4391 11.4781 18.3251 10.0014C19.2111 8.52467 20.5205 7.34836 22.0833 6.62508V12.1459H24.2917V5.52091C24.2917 4.90258 24.7775 4.41675 25.3958 4.41675" fill="white"/>
</g>
</svg>
