<svg width="212" height="44" viewBox="0 0 212 44" fill="none" xmlns="http://www.w3.org/2000/svg">
<path d="M35.4772 27.4053L32.7219 32.1676C32.6919 32.2203 32.6483 32.2641 32.5955 32.2946C32.5428 32.3252 32.4828 32.3412 32.4217 32.3412C32.3606 32.3412 32.3006 32.3252 32.2479 32.2946C32.1951 32.2641 32.1515 32.2203 32.1216 32.1676L25.922 21.2211C25.8901 21.1708 25.8458 21.1294 25.7933 21.1006C25.7408 21.0719 25.6818 21.0568 25.6218 21.0568C25.5618 21.0568 25.5028 21.0719 25.4503 21.1006C25.3978 21.1294 25.3535 21.1708 25.3217 21.2211L19.1516 32.1676C19.123 32.2205 19.0805 32.2648 19.0285 32.2957C18.9765 32.3266 18.917 32.3429 18.8563 32.3429C18.7957 32.3429 18.7362 32.3266 18.6842 32.2957C18.6322 32.2648 18.5897 32.2205 18.5611 32.1676L6.46699 11.4433C6.43482 11.3924 6.41725 11.3338 6.41618 11.2737C6.41511 11.2136 6.43053 11.1544 6.46087 11.1024C6.4912 11.0503 6.5353 11.0075 6.58838 10.9783C6.64146 10.9492 6.70154 10.9349 6.7622 10.9369H18.1084C18.1679 10.9379 18.2261 10.9541 18.2774 10.984C18.3287 11.0139 18.3713 11.0564 18.401 11.1074C18.4307 11.1584 18.4466 11.2161 18.4471 11.275C18.4476 11.3339 18.4326 11.3919 18.4037 11.4433L15.7959 16.0498C15.7666 16.1019 15.7512 16.1606 15.7512 16.2202C15.7512 16.2799 15.7666 16.3385 15.7959 16.3907L18.5414 21.0653C18.5721 21.1157 18.6154 21.1574 18.6671 21.1864C18.7188 21.2154 18.7773 21.2306 18.8367 21.2306C18.8961 21.2306 18.9545 21.2154 19.0063 21.1864C19.058 21.1574 19.1013 21.1157 19.1319 21.0653L28.0475 5.78507C28.0797 5.73413 28.0973 5.67548 28.0983 5.61542C28.0994 5.55536 28.0839 5.49614 28.0536 5.4441C28.0233 5.39207 27.9792 5.34918 27.9262 5.32004C27.8731 5.29089 27.813 5.27658 27.7523 5.27865H3.00306C2.9436 5.27862 2.88518 5.26336 2.83345 5.23434C2.78171 5.20533 2.73844 5.16356 2.70785 5.11309L0.0508651 0.506616C0.0186938 0.455675 0.00112417 0.397032 5.21177e-05 0.336969C-0.00101994 0.276906 0.0144655 0.217686 0.0447988 0.165652C0.075132 0.113618 0.119175 0.0707314 0.172252 0.0415852C0.225329 0.0124389 0.285408 -0.00186835 0.346073 0.000195528H37.0419C37.1011 -0.000765636 37.1595 0.0138348 37.2111 0.0425046C37.2627 0.0711745 37.3058 0.112888 37.3358 0.163388C37.3658 0.213887 37.3817 0.271365 37.382 0.329953C37.3822 0.388541 37.3667 0.446142 37.3371 0.496877L28.8151 15.3194C28.7839 15.3709 28.7674 15.4298 28.7674 15.4898C28.7674 15.5499 28.7839 15.6088 28.8151 15.6603L35.4182 26.8697C35.4715 26.9474 35.5048 27.0368 35.5151 27.1302C35.5254 27.2236 35.5124 27.318 35.4772 27.4053Z" fill="#F28A1F"/>
<path d="M35.3788 16.3908L38.4097 21.2602C38.4404 21.3107 38.4836 21.3524 38.5354 21.3813C38.5871 21.4103 38.6455 21.4255 38.705 21.4255C38.7644 21.4255 38.8228 21.4103 38.8745 21.3813C38.9263 21.3524 38.9695 21.3107 39.0002 21.2602L50.9566 0.53599C50.9855 0.48453 51.0004 0.426539 51 0.367665C50.9995 0.308792 50.9836 0.251044 50.9539 0.200047C50.9242 0.14905 50.8816 0.106543 50.8303 0.0766675C50.779 0.0467919 50.7208 0.0305663 50.6613 0.0295715H44.9932C44.9337 0.0295996 44.8752 0.0448628 44.8235 0.0738756C44.7718 0.102888 44.7285 0.144663 44.6979 0.195132L35.369 16.0792C35.3446 16.1279 35.3328 16.1819 35.3345 16.2362C35.3362 16.2906 35.3514 16.3437 35.3788 16.3908Z" fill="#F28A1F"/>
<path d="M30.242 36.1702L25.922 43.8347C25.8914 43.8851 25.8481 43.9268 25.7964 43.9558C25.7447 43.9848 25.6862 44 25.6268 44C25.5673 44 25.5089 43.9848 25.4572 43.9558C25.4055 43.9268 25.3622 43.8851 25.3316 43.8347L20.8541 36.18C20.8248 36.1278 20.8094 36.0692 20.8094 36.0095C20.8094 35.9499 20.8248 35.8912 20.8541 35.8391L25.2725 28.3207C25.3011 28.2678 25.3436 28.2235 25.3956 28.1926C25.4476 28.1617 25.5071 28.1454 25.5677 28.1454C25.6284 28.1454 25.6879 28.1617 25.7399 28.1926C25.7919 28.2235 25.8344 28.2678 25.863 28.3207L30.2322 35.8391C30.2631 35.8886 30.2803 35.9452 30.282 36.0034C30.2837 36.0615 30.2699 36.119 30.242 36.1702Z" fill="#F28A1F"/>
<path d="M81.8345 14.9045C81.8667 14.7194 81.9634 14.5519 82.1072 14.4321C82.251 14.3122 82.4325 14.248 82.6191 14.2508H84.4861C84.6163 14.2289 84.7498 14.2415 84.8736 14.2876C84.9974 14.3336 85.1071 14.4114 85.1919 14.5132C85.2766 14.615 85.3334 14.7374 85.3568 14.8681C85.3801 14.9989 85.3691 15.1335 85.3249 15.2586L80.9551 35.5387C80.9229 35.7238 80.8263 35.8913 80.6825 36.0111C80.5386 36.1309 80.3571 36.1952 80.1704 36.1924H77.8706C77.6761 36.2028 77.4844 36.1426 77.3304 36.0225C77.1764 35.9025 77.0704 35.7308 77.0317 35.5387L76.2065 31.0577L74.2043 19.4263L72.1614 31.0441L71.3226 35.525C71.2869 35.7161 71.1835 35.8876 71.0318 36.0078C70.8801 36.128 70.6902 36.1887 70.4974 36.1788H68.1839C67.998 36.1789 67.8178 36.1136 67.6745 35.9943C67.5313 35.8749 67.4339 35.709 67.3992 35.525L63.043 15.245C62.9997 15.1211 62.9889 14.988 63.0116 14.8586C63.0344 14.7292 63.09 14.6079 63.173 14.5065C63.256 14.4052 63.3636 14.3271 63.4854 14.2799C63.6072 14.2327 63.7391 14.218 63.8682 14.2372H65.7081C65.8941 14.237 66.0743 14.3023 66.2175 14.4217C66.3608 14.541 66.4582 14.707 66.4928 14.8909L68.4545 24.1116L68.8468 31.0849L71.9314 14.8909C71.9726 14.7001 72.0793 14.5299 72.2327 14.4104C72.386 14.2908 72.5764 14.2295 72.7702 14.2372H75.5977C75.7905 14.2272 75.9804 14.288 76.1322 14.4082C76.2839 14.5284 76.3873 14.6999 76.423 14.8909L79.5211 31.0441L79.954 24.0707L81.8345 14.9045Z" fill="#0D9CA4"/>
<path d="M98.3532 30.581C98.3496 32.15 97.728 33.6534 96.6247 34.7616C95.5215 35.8697 94.0266 36.4921 92.4682 36.4921C90.9108 36.4885 89.418 35.865 88.3155 34.7576C87.213 33.6503 86.5902 32.1489 86.5831 30.581V19.9575C86.5902 18.3884 87.2125 16.8856 88.3147 15.7761C89.4168 14.6665 90.9096 14.04 92.4682 14.0329C94.029 14.0329 95.5259 14.6571 96.6295 15.7682C97.7332 16.8792 98.3532 18.3862 98.3532 19.9575V30.581ZM94.8628 19.9575C94.8646 19.6404 94.8038 19.3261 94.6841 19.0328C94.5644 18.7395 94.3881 18.4731 94.1654 18.2489C93.9427 18.0246 93.678 17.8471 93.3866 17.7266C93.0953 17.6061 92.7831 17.545 92.4682 17.5468C91.8342 17.5504 91.2272 17.8055 90.7789 18.2568C90.3306 18.7082 90.0771 19.3193 90.0736 19.9575V30.581C90.0806 31.2182 90.3351 31.8273 90.7827 32.2778C91.2302 32.7284 91.8353 32.9847 92.4682 32.9917C93.1033 32.9917 93.7123 32.7378 94.1614 32.2857C94.6105 31.8336 94.8628 31.2204 94.8628 30.581V19.9575Z" fill="#0D9CA4"/>
<path d="M109.812 17.7647C109.818 17.8073 109.815 17.8507 109.802 17.8919C109.79 17.9331 109.769 17.9712 109.741 18.0035C109.712 18.0358 109.678 18.0616 109.639 18.0792C109.599 18.0967 109.557 18.1056 109.514 18.1052H109.163C108.572 18.04 107.975 18.106 107.412 18.2987C106.85 18.4914 106.336 18.8061 105.908 19.2204C105.48 19.6348 105.147 20.1388 104.933 20.6968C104.719 21.2548 104.63 21.8533 104.671 22.4499V35.4024C104.675 35.5126 104.656 35.6223 104.616 35.7248C104.576 35.8273 104.515 35.9204 104.438 35.9984C104.36 36.0763 104.268 36.1373 104.166 36.1777C104.064 36.2182 103.955 36.237 103.846 36.2332H102.006C101.897 36.237 101.788 36.2182 101.686 36.1777C101.584 36.1373 101.491 36.0763 101.414 35.9984C101.337 35.9204 101.276 35.8273 101.236 35.7248C101.196 35.6223 101.177 35.5126 101.181 35.4024V15.1224C101.177 15.0123 101.196 14.9026 101.236 14.8C101.276 14.6975 101.337 14.6044 101.414 14.5265C101.491 14.4486 101.584 14.3875 101.686 14.3471C101.788 14.3067 101.897 14.2878 102.006 14.2916H103.278C103.484 14.2874 103.684 14.3626 103.838 14.5017C103.991 14.6409 104.086 14.8336 104.103 15.0407L104.319 17.3697C104.734 16.4725 105.393 15.7114 106.218 15.1741C107.044 14.6368 108.004 14.3451 108.987 14.3325C109.095 14.3204 109.204 14.3321 109.307 14.367C109.409 14.4018 109.503 14.4588 109.582 14.5341C109.661 14.6093 109.722 14.701 109.762 14.8026C109.801 14.9043 109.819 15.0134 109.812 15.1224V17.7647Z" fill="#0D9CA4"/>
<path d="M124.071 15.5719L119.62 22.7223H120.148C120.297 22.7283 120.44 22.7817 120.556 22.8747C120.673 22.9677 120.758 23.0955 120.797 23.2399L122.976 31.4935C123.151 32.1473 123.449 32.7193 124.328 32.7193H124.626C124.696 32.7254 124.761 32.7561 124.811 32.8059C124.86 32.8557 124.891 32.9215 124.897 32.9917V35.4433C124.905 35.5491 124.89 35.6554 124.854 35.755C124.817 35.8545 124.759 35.9449 124.685 36.02C124.61 36.095 124.521 36.153 124.422 36.1898C124.323 36.2266 124.217 36.2414 124.112 36.2332H123.327C121.312 36.2332 120.351 34.5716 119.796 32.5422L117.916 25.6642L115.481 29.5595V35.4024C115.483 35.5132 115.462 35.6232 115.42 35.7258C115.379 35.8283 115.317 35.9213 115.238 35.999C115.16 36.0767 115.067 36.1376 114.964 36.1778C114.861 36.2181 114.752 36.2369 114.642 36.2332H112.815C112.706 36.237 112.597 36.2181 112.495 36.1777C112.393 36.1373 112.301 36.0763 112.224 35.9983C112.146 35.9204 112.086 35.8273 112.045 35.7248C112.005 35.6223 111.986 35.5125 111.99 35.4024V8.544C111.986 8.43387 112.005 8.32414 112.045 8.22162C112.086 8.1191 112.146 8.02599 112.224 7.94807C112.301 7.87015 112.393 7.80909 112.495 7.76868C112.597 7.72827 112.706 7.70938 112.815 7.71319H114.642C114.752 7.70948 114.861 7.72833 114.964 7.76859C115.067 7.80885 115.16 7.86969 115.238 7.9474C115.317 8.02511 115.379 8.11807 115.42 8.22063C115.462 8.32319 115.483 8.43321 115.481 8.544V23.2399L120.797 14.6866C120.878 14.5662 120.987 14.4673 121.114 14.3985C121.242 14.3297 121.384 14.293 121.528 14.2916H123.409C124.234 14.2916 124.545 14.8228 124.071 15.5719Z" fill="#0D9CA4"/>
<path d="M137.925 25.2148C137.929 25.3255 137.91 25.4359 137.87 25.5391C137.83 25.6423 137.769 25.7363 137.692 25.8153C137.615 25.8942 137.523 25.9566 137.421 25.9985C137.319 26.0405 137.21 26.0611 137.1 26.0592H129.578V30.581C129.585 31.2252 129.845 31.8404 130.301 32.2921C130.757 32.7439 131.373 32.9954 132.013 32.9917C132.648 32.9917 133.257 32.7377 133.706 32.2857C134.155 31.8336 134.407 31.2204 134.407 30.581V29.6821C134.404 29.572 134.422 29.4622 134.462 29.3597C134.503 29.2572 134.563 29.1641 134.641 29.0862C134.718 29.0083 134.811 28.9472 134.912 28.9068C135.014 28.8664 135.123 28.8475 135.233 28.8513H137.073C137.182 28.8475 137.291 28.8664 137.393 28.9068C137.495 28.9472 137.587 29.0083 137.664 29.0862C137.742 29.1641 137.803 29.2572 137.843 29.3597C137.883 29.4622 137.902 29.572 137.898 29.6821V30.6083C137.891 32.1689 137.271 33.6633 136.173 34.7656C135.076 35.8678 133.59 36.4885 132.04 36.492C130.477 36.4957 128.975 35.8758 127.865 34.7681C126.754 33.6603 126.125 32.1548 126.114 30.581V19.9575C126.121 18.3813 126.749 16.8724 127.86 15.7617C128.971 14.651 130.474 14.0292 132.04 14.0329C133.601 14.0329 135.098 14.6571 136.201 15.7681C137.305 16.8792 137.925 18.3862 137.925 19.9575V25.2148ZM129.578 23.0765H134.407V19.9575C134.409 19.6404 134.348 19.3261 134.229 19.0328C134.109 18.7395 133.933 18.4731 133.71 18.2488C133.487 18.0246 133.223 17.8471 132.931 17.7266C132.64 17.6061 132.328 17.545 132.013 17.5468C131.373 17.5431 130.757 17.7947 130.301 18.2464C129.845 18.6981 129.585 19.3133 129.578 19.9575V23.0765Z" fill="#0D9CA4"/>
<path d="M149.478 17.7647C149.482 17.8081 149.477 17.8517 149.463 17.8929C149.449 17.9342 149.427 17.972 149.397 18.004C149.368 18.0361 149.333 18.0616 149.293 18.079C149.253 18.0964 149.211 18.1053 149.167 18.1052H148.816C148.226 18.0421 147.63 18.1098 147.069 18.3034C146.509 18.4971 145.997 18.8121 145.57 19.2262C145.143 19.6403 144.812 20.1435 144.599 20.7005C144.386 21.2574 144.297 21.8546 144.338 22.4499V35.4024C144.339 35.5132 144.319 35.6232 144.277 35.7258C144.236 35.8284 144.174 35.9213 144.095 35.999C144.017 36.0767 143.923 36.1376 143.821 36.1778C143.718 36.2181 143.609 36.237 143.499 36.2332H141.672C141.563 36.237 141.454 36.2182 141.352 36.1777C141.25 36.1373 141.158 36.0763 141.08 35.9984C141.003 35.9204 140.942 35.8273 140.902 35.7248C140.862 35.6223 140.843 35.5126 140.847 35.4024V15.1224C140.843 15.0123 140.862 14.9026 140.902 14.8C140.942 14.6975 141.003 14.6044 141.08 14.5265C141.158 14.4486 141.25 14.3875 141.352 14.3471C141.454 14.3067 141.563 14.2878 141.672 14.2916H142.931C143.138 14.2872 143.34 14.3619 143.496 14.5007C143.651 14.6396 143.749 14.8324 143.769 15.0407L143.986 17.3697C144.4 16.4715 145.058 15.7095 145.883 15.172C146.709 14.6345 147.67 14.3435 148.653 14.3325C148.761 14.3204 148.87 14.3321 148.973 14.367C149.076 14.4018 149.17 14.4588 149.248 14.5341C149.327 14.6093 149.388 14.701 149.428 14.8026C149.468 14.9043 149.485 15.0134 149.478 15.1224V17.7647Z" fill="#0D9CA4"/>
<path d="M159.544 21.6191C159.434 21.6229 159.326 21.604 159.224 21.5636C159.122 21.5232 159.029 21.4622 158.952 21.3842C158.875 21.3063 158.814 21.2132 158.774 21.1107C158.734 21.0082 158.715 20.8984 158.719 20.7883V19.9575C158.712 19.3203 158.457 18.7113 158.01 18.2607C157.562 17.8101 156.957 17.5539 156.324 17.5468C156.005 17.5468 155.69 17.6104 155.396 17.7339C155.102 17.8574 154.836 18.0384 154.612 18.2665C154.388 18.4945 154.211 18.765 154.091 19.0622C153.972 19.3595 153.912 19.6777 153.916 19.9984C153.897 20.3156 153.947 20.6332 154.061 20.9294C154.175 21.2256 154.352 21.4934 154.579 21.7145L160.288 26.2363C160.911 26.7568 161.407 27.4143 161.737 28.1581C162.068 28.9019 162.225 29.7122 162.196 30.5265C162.201 31.3069 162.053 32.0806 161.761 32.8032C161.468 33.5258 161.037 34.1832 160.491 34.7375C159.945 35.2918 159.297 35.7322 158.581 36.0333C157.866 36.3344 157.099 36.4903 156.324 36.492C155.552 36.4938 154.787 36.3423 154.073 36.046C153.359 35.7498 152.71 35.3146 152.164 34.7656C151.617 34.2165 151.183 33.5643 150.887 32.8462C150.591 32.1282 150.439 31.3584 150.439 30.581V29.6821C150.433 29.5714 150.45 29.4608 150.49 29.3573C150.529 29.2539 150.59 29.1599 150.668 29.0815C150.746 29.0032 150.839 28.9422 150.942 28.9025C151.044 28.8629 151.154 28.8454 151.264 28.8513H153.091C153.202 28.8434 153.313 28.8594 153.417 28.8981C153.522 28.9369 153.617 28.9976 153.696 29.0762C153.776 29.1548 153.837 29.2494 153.878 29.3539C153.918 29.4584 153.935 29.5702 153.929 29.6821V30.6083C153.933 31.2489 154.188 31.862 154.64 32.3137C155.091 32.7654 155.701 33.019 156.338 33.019C156.979 33.0082 157.59 32.7433 158.038 32.2818C158.486 31.8202 158.736 31.1993 158.732 30.5538C158.752 30.2328 158.695 29.9117 158.565 29.6178C158.436 29.3238 158.238 29.0656 157.988 28.8649L152.13 24.2341C151.576 23.7134 151.138 23.0795 150.847 22.3749C150.555 21.6703 150.416 20.9112 150.439 20.1482C150.43 19.3638 150.576 18.5854 150.867 17.8579C151.159 17.1305 151.591 16.4684 152.138 15.9099C152.685 15.3515 153.337 14.9077 154.055 14.6042C154.774 14.3007 155.545 14.1436 156.324 14.1418C157.096 14.1418 157.861 14.2952 158.574 14.5931C159.287 14.891 159.935 15.3276 160.481 15.8779C161.026 16.4283 161.458 17.0815 161.752 17.8002C162.047 18.519 162.197 19.2891 162.196 20.0665V20.8973C162.199 21.0074 162.181 21.1171 162.14 21.2197C162.1 21.3222 162.04 21.4153 161.962 21.4932C161.885 21.5711 161.792 21.6322 161.691 21.6726C161.589 21.713 161.48 21.7319 161.37 21.7281L159.544 21.6191Z" fill="#0D9CA4"/>
<path d="M171.828 27.3667C171.563 27.46 171.281 27.4926 171.003 27.4621H168.216V35.4025C168.22 35.5126 168.201 35.6223 168.161 35.7248C168.121 35.8274 168.06 35.9205 167.983 35.9984C167.905 36.0763 167.813 36.1374 167.711 36.1778C167.609 36.2182 167.5 36.2371 167.391 36.2333H165.429C165.319 36.2371 165.211 36.2182 165.109 36.1778C165.007 36.1374 164.914 36.0763 164.837 35.9984C164.76 35.9205 164.699 35.8274 164.659 35.7248C164.619 35.6223 164.6 35.5126 164.604 35.4025V8.54404C164.6 8.43392 164.619 8.32418 164.659 8.22166C164.699 8.11915 164.76 8.02603 164.837 7.94811C164.914 7.8702 165.007 7.80913 165.109 7.76873C165.211 7.72832 165.319 7.70943 165.429 7.71323H171.355C172.279 7.6775 173.201 7.83315 174.064 8.17057C174.926 8.50798 175.711 9.01998 176.369 9.67489C177.027 10.3298 177.545 11.1137 177.89 11.9781C178.235 12.8425 178.401 13.769 178.376 14.7002V20.407C178.415 21.6452 178.113 22.8701 177.504 23.9468C176.896 25.0234 176.003 25.9099 174.926 26.5087L175.359 27.0807C175.45 27.2158 175.523 27.3623 175.575 27.5165L178.024 35.1164C178.09 35.2403 178.119 35.3801 178.109 35.52C178.1 35.6599 178.051 35.7942 177.97 35.9077C177.888 36.0213 177.776 36.1094 177.647 36.1621C177.518 36.2149 177.377 36.2301 177.24 36.206H175.197C175.023 36.2061 174.853 36.1509 174.712 36.0481C174.571 35.9454 174.466 35.8004 174.412 35.634L171.828 27.3667ZM171.355 23.8119C171.801 23.8268 172.246 23.75 172.662 23.586C173.078 23.4221 173.456 23.1745 173.774 22.8584C174.092 22.5423 174.342 22.1643 174.51 21.7475C174.678 21.3307 174.76 20.8839 174.75 20.4342V14.7002C174.76 14.2506 174.678 13.8037 174.51 13.3869C174.342 12.9701 174.092 12.5921 173.774 12.276C173.456 11.9599 173.078 11.7123 172.662 11.5484C172.246 11.3845 171.801 11.3076 171.355 11.3225H168.216V23.7847L171.355 23.8119Z" fill="#0D9CA4"/>
<path d="M195.192 8.544V29.4369C195.238 30.3722 195.09 31.3068 194.757 32.1811C194.423 33.0553 193.913 33.8499 193.257 34.514C192.601 35.178 191.815 35.697 190.948 36.0376C190.082 36.3782 189.154 36.533 188.225 36.492C187.298 36.5279 186.373 36.3715 185.509 36.0324C184.645 35.6934 183.859 35.1789 183.2 34.521C182.542 33.8632 182.024 33.076 181.681 32.2084C181.338 31.3408 181.175 30.4113 181.204 29.4778V8.544C181.2 8.43387 181.218 8.32414 181.259 8.22162C181.299 8.1191 181.359 8.02599 181.437 7.94807C181.514 7.87015 181.607 7.80909 181.709 7.76868C181.81 7.72827 181.919 7.70938 182.029 7.71319H183.99C184.1 7.70938 184.209 7.72827 184.311 7.76868C184.412 7.80909 184.505 7.87015 184.582 7.94807C184.66 8.02599 184.72 8.1191 184.761 8.22162C184.801 8.32414 184.819 8.43387 184.816 8.544V29.4369C184.799 29.8851 184.874 30.332 185.036 30.7496C185.199 31.1672 185.445 31.5465 185.76 31.8636C186.075 32.1808 186.452 32.429 186.867 32.5926C187.282 32.7563 187.726 32.8319 188.171 32.8146C188.619 32.8334 189.066 32.7594 189.485 32.597C189.903 32.4346 190.284 32.1874 190.604 31.8707C190.923 31.554 191.175 31.1745 191.343 30.7559C191.511 30.3372 191.592 29.8883 191.58 29.4369V8.544C191.576 8.43387 191.595 8.32414 191.635 8.22162C191.675 8.1191 191.736 8.02599 191.813 7.94807C191.891 7.87015 191.983 7.80909 192.085 7.76868C192.187 7.72827 192.296 7.70938 192.405 7.71319H194.367C194.476 7.70938 194.585 7.72827 194.687 7.76868C194.789 7.80909 194.882 7.87015 194.959 7.94807C195.036 8.02599 195.097 8.1191 195.137 8.22162C195.177 8.32414 195.196 8.43387 195.192 8.544Z" fill="#0D9CA4"/>
<path d="M200.78 26.5768C200.89 26.5748 200.999 26.5955 201.101 26.6374C201.203 26.6794 201.295 26.7417 201.372 26.8207C201.449 26.8997 201.51 26.9936 201.55 27.0969C201.59 27.2001 201.609 27.3104 201.605 27.4212V29.219C201.557 29.6878 201.611 30.1614 201.763 30.6073C201.914 31.0532 202.159 31.4609 202.482 31.8024C202.805 32.144 203.197 32.4112 203.631 32.5859C204.066 32.7607 204.533 32.8387 205.001 32.8147C205.452 32.8432 205.904 32.774 206.327 32.6117C206.75 32.4494 207.133 32.1978 207.451 31.8739C207.769 31.5499 208.014 31.1611 208.17 30.7337C208.326 30.3063 208.39 29.8502 208.356 29.3961C208.439 28.7754 208.357 28.1437 208.12 27.5649C207.882 26.9861 207.497 26.4808 207.003 26.1001L200.239 20.3933C199.446 19.6882 198.829 18.8059 198.437 17.8172C198.044 16.8285 197.888 15.7609 197.979 14.7002C197.926 13.7522 198.07 12.8033 198.402 11.9146C198.734 11.0259 199.247 10.2169 199.909 9.53972C200.57 8.86252 201.364 8.33201 202.241 7.98227C203.118 7.63254 204.058 7.4713 205.001 7.50891C205.944 7.45987 206.887 7.61362 207.767 7.95993C208.647 8.30624 209.444 8.83718 210.104 9.51745C210.765 10.1977 211.274 11.0117 211.597 11.9053C211.921 12.7989 212.052 13.7517 211.982 14.7002V16.5934C211.983 16.7042 211.963 16.8142 211.921 16.9167C211.88 17.0193 211.818 17.1123 211.739 17.19C211.661 17.2677 211.567 17.3285 211.465 17.3688C211.362 17.409 211.253 17.4279 211.143 17.4242H209.181C209.072 17.428 208.963 17.4091 208.861 17.3687C208.759 17.3283 208.667 17.2672 208.589 17.1893C208.512 17.1114 208.451 17.0183 208.411 16.9158C208.371 16.8132 208.352 16.7035 208.356 16.5934V14.7002C208.396 14.2382 208.339 13.7728 208.187 13.3349C208.035 12.8969 207.793 12.4966 207.475 12.1603C207.158 11.8241 206.773 11.5597 206.347 11.3847C205.92 11.2097 205.461 11.1282 205.001 11.1454C204.538 11.1244 204.075 11.2031 203.645 11.3762C203.214 11.5493 202.825 11.8128 202.504 12.1493C202.182 12.4857 201.936 12.8872 201.781 13.3271C201.626 13.767 201.566 14.2351 201.605 14.7002C201.524 15.3448 201.605 15.9997 201.841 16.6043C202.078 17.2089 202.462 17.7438 202.958 18.1597L209.722 23.8664C210.516 24.5435 211.131 25.4076 211.514 26.3817C211.896 27.3559 212.034 28.41 211.914 29.4505C211.97 30.383 211.83 31.317 211.504 32.1915C211.178 33.066 210.672 33.8614 210.019 34.5258C209.367 35.1902 208.583 35.7087 207.718 36.0475C206.853 36.3863 205.927 36.5378 205.001 36.492C204.055 36.5301 203.111 36.3678 202.231 36.0157C201.351 35.6635 200.555 35.1292 199.893 34.4475C199.231 33.7658 198.719 32.9518 198.389 32.0582C198.059 31.1646 197.92 30.2112 197.979 29.2599V27.4212C197.975 27.3093 197.995 27.1978 198.035 27.0936C198.076 26.9894 198.138 26.8948 198.216 26.8156C198.295 26.7364 198.389 26.6744 198.493 26.6333C198.596 26.5922 198.707 26.573 198.818 26.5768H200.78Z" fill="#0D9CA4"/>
</svg>
