<svg width="86" height="87" viewBox="0 0 86 87" fill="none" xmlns="http://www.w3.org/2000/svg">
<g id="tabler:messages">
<path id="Vector" d="M50.1667 53.9746V61.1413C50.1667 62.0916 49.7891 63.0031 49.1171 63.6751C48.4451 64.3471 47.5337 64.7246 46.5833 64.7246H21.5L10.75 75.4746V39.6413C10.75 38.6909 11.1275 37.7795 11.7995 37.1075C12.4715 36.4355 13.383 36.0579 14.3333 36.0579H21.5M75.25 50.3913L64.5 39.6413H39.4167C38.4663 39.6413 37.5549 39.2637 36.8829 38.5917C36.2109 37.9197 35.8333 37.0083 35.8333 36.0579V14.5579C35.8333 13.6076 36.2109 12.6961 36.8829 12.0241C37.5549 11.3521 38.4663 10.9746 39.4167 10.9746H71.6667C72.617 10.9746 73.5285 11.3521 74.2005 12.0241C74.8725 12.6961 75.25 13.6076 75.25 14.5579V50.3913Z" stroke="white" stroke-width="5.42" stroke-linecap="round" stroke-linejoin="round"/>
</g>
</svg>
