<svg width="53" height="53" viewBox="0 0 53 53" fill="none" xmlns="http://www.w3.org/2000/svg">
<g id="bi:save">
<path id="Vector" d="M6.625 3.3125C5.74647 3.3125 4.90392 3.66149 4.28271 4.28271C3.66149 4.90392 3.3125 5.74647 3.3125 6.625V46.375C3.3125 47.2535 3.66149 48.0961 4.28271 48.7173C4.90392 49.3385 5.74647 49.6875 6.625 49.6875H46.375C47.2535 49.6875 48.0961 49.3385 48.7173 48.7173C49.3385 48.0961 49.6875 47.2535 49.6875 46.375V6.625C49.6875 5.74647 49.3385 4.90392 48.7173 4.28271C48.0961 3.66149 47.2535 3.3125 46.375 3.3125H31.4688C30.5902 3.3125 29.7477 3.66149 29.1265 4.28271C28.5052 4.90392 28.1562 5.74647 28.1562 6.625V30.7831L36.9211 22.0149C37.2321 21.7039 37.6539 21.5292 38.0938 21.5292C38.5336 21.5292 38.9554 21.7039 39.2664 22.0149C39.5774 22.3259 39.7521 22.7477 39.7521 23.1875C39.7521 23.6273 39.5774 24.0491 39.2664 24.3601L27.6726 35.9539C27.5188 36.1081 27.336 36.2305 27.1348 36.314C26.9336 36.3975 26.7179 36.4405 26.5 36.4405C26.2821 36.4405 26.0664 36.3975 25.8652 36.314C25.664 36.2305 25.4812 36.1081 25.3274 35.9539L13.7336 24.3601C13.5796 24.2061 13.4575 24.0233 13.3741 23.8221C13.2908 23.6209 13.2479 23.4053 13.2479 23.1875C13.2479 22.9697 13.2908 22.7541 13.3741 22.5529C13.4575 22.3517 13.5796 22.1689 13.7336 22.0149C13.8876 21.8609 14.0704 21.7387 14.2716 21.6554C14.4728 21.5721 14.6885 21.5292 14.9062 21.5292C15.124 21.5292 15.3397 21.5721 15.5409 21.6554C15.7421 21.7387 15.9249 21.8609 16.0789 22.0149L24.8438 30.7831V6.625C24.8438 4.86794 25.5417 3.18285 26.7842 1.94042C28.0266 0.697989 29.7117 0 31.4688 0L46.375 0C48.1321 0 49.8172 0.697989 51.0596 1.94042C52.302 3.18285 53 4.86794 53 6.625V46.375C53 48.1321 52.302 49.8172 51.0596 51.0596C49.8172 52.302 48.1321 53 46.375 53H6.625C4.86794 53 3.18285 52.302 1.94042 51.0596C0.697989 49.8172 0 48.1321 0 46.375V6.625C0 4.86794 0.697989 3.18285 1.94042 1.94042C3.18285 0.697989 4.86794 0 6.625 0L14.9062 0C15.3455 0 15.7668 0.174497 16.0774 0.485104C16.388 0.795712 16.5625 1.21699 16.5625 1.65625C16.5625 2.09551 16.388 2.51679 16.0774 2.8274C15.7668 3.138 15.3455 3.3125 14.9062 3.3125H6.625Z" fill="white"/>
</g>
</svg>
