<svg width="54" height="53" viewBox="0 0 54 53" fill="none" xmlns="http://www.w3.org/2000/svg">
<g id="fluent:briefcase-search-20-regular">
<path id="Vector" d="M19.05 13.25V9.93755C19.05 7.37765 21.1276 5.30005 23.6875 5.30005H30.3125C32.8724 5.30005 34.95 7.37765 34.95 9.93755V13.25H38.925C40.6821 13.25 42.3672 13.948 43.6096 15.1905C44.852 16.4329 45.55 18.118 45.55 19.875V35.775C45.55 37.5321 44.852 39.2172 43.6096 40.4596C42.3672 41.7021 40.6821 42.4001 38.925 42.4001H27.3207L24.6707 39.75H38.925C39.9792 39.75 40.9903 39.3313 41.7358 38.5858C42.4812 37.8403 42.9 36.8293 42.9 35.775V27.8251C41.7541 28.6868 40.3588 29.152 38.925 29.15H29.65V30.475C29.65 30.8265 29.5104 31.1635 29.2619 31.412C29.0134 31.6605 28.6764 31.8 28.325 31.8H25.675C25.3236 31.8 24.9866 31.6605 24.7381 31.412C24.4896 31.1635 24.35 30.8265 24.35 30.475V29.15H23.6716C23.3405 28.2146 22.8936 27.3244 22.3413 26.5H24.35V25.175C24.35 24.8236 24.4896 24.4866 24.7381 24.2381C24.9866 23.9896 25.3236 23.85 25.675 23.85H28.325C28.6764 23.85 29.0134 23.9896 29.2619 24.2381C29.5104 24.4866 29.65 24.8236 29.65 25.175V26.5H38.925C39.9792 26.5 40.9903 26.0813 41.7358 25.3358C42.4812 24.5903 42.9 23.5793 42.9 22.525V19.875C42.9 18.8208 42.4812 17.8098 41.7358 17.0643C40.9903 16.3188 39.9792 15.9 38.925 15.9H15.075C14.0208 15.9 13.0097 16.3188 12.2642 17.0643C11.5188 17.8098 11.1 18.8208 11.1 19.875V21.2716C10.1962 21.3725 9.30703 21.577 8.45 21.8811V19.875C8.45 18.118 9.14799 16.4329 10.3904 15.1905C11.6328 13.948 13.3179 13.25 15.075 13.25H19.05ZM21.7 9.93755V13.25H32.3V9.93755C32.3 9.41043 32.0906 8.9049 31.7179 8.53217C31.3451 8.15945 30.8396 7.95005 30.3125 7.95005H23.6875C23.1604 7.95005 22.6549 8.15945 22.2821 8.53217C21.9094 8.9049 21.7 9.41043 21.7 9.93755ZM12.425 42.4001C14.5079 42.4001 16.4318 41.7111 17.9794 40.553L24.7369 47.3105C24.8599 47.4337 25.006 47.5314 25.1668 47.5982C25.3276 47.6649 25.5 47.6993 25.6741 47.6995C25.8482 47.6996 26.0206 47.6654 26.1815 47.5989C26.3424 47.5324 26.4886 47.4348 26.6118 47.3118C26.735 47.1888 26.8327 47.0427 26.8995 46.8819C26.9662 46.7211 27.0006 46.5488 27.0007 46.3747C27.0009 46.2006 26.9667 46.0281 26.9002 45.8673C26.8337 45.7064 26.7361 45.5601 26.6131 45.437L19.8556 38.6795C21.1064 37.0067 21.756 34.9607 21.6992 32.8728C21.6424 30.7849 20.8825 28.7773 19.5426 27.175C18.2027 25.5727 16.3612 24.4697 14.3162 24.0444C12.2713 23.6191 10.1427 23.8964 8.27502 24.8316C6.40737 25.7668 4.91004 27.3049 4.02548 29.1971C3.14091 31.0892 2.92091 33.2245 3.40108 35.2573C3.88125 37.29 5.03349 39.1012 6.67122 40.3975C8.30896 41.6939 10.3363 42.3995 12.425 42.4001ZM12.425 39.75C10.6679 39.75 8.98285 39.0521 7.74042 37.8096C6.49799 36.5672 5.8 34.8821 5.8 33.125C5.8 31.368 6.49799 29.6829 7.74042 28.4405C8.98285 27.198 10.6679 26.5 12.425 26.5C14.1821 26.5 15.8672 27.198 17.1096 28.4405C18.352 29.6829 19.05 31.368 19.05 33.125C19.05 34.8821 18.352 36.5672 17.1096 37.8096C15.8672 39.0521 14.1821 39.75 12.425 39.75Z" fill="white"/>
</g>
</svg>
