<svg width="80" height="80" viewBox="0 0 80 80" fill="none" xmlns="http://www.w3.org/2000/svg">
<g id="teenyicons:tick-circle-solid">
<path id="Vector" fill-rule="evenodd" clip-rule="evenodd" d="M0.13739 40.4069C0.13739 29.9308 4.29899 19.8838 11.7067 12.4761C19.1144 5.06846 29.1613 0.90686 39.6374 0.90686C50.1134 0.90686 60.1604 5.06846 67.5681 12.4761C74.9758 19.8838 79.1374 29.9308 79.1374 40.4069C79.1374 50.8829 74.9758 60.9299 67.5681 68.3376C60.1604 75.7453 50.1134 79.9069 39.6374 79.9069C29.1613 79.9069 19.1144 75.7453 11.7067 68.3376C4.29899 60.9299 0.13739 50.8829 0.13739 40.4069ZM37.3833 57.3129L60.1247 28.8834L56.0167 25.597L36.6249 49.8289L22.8894 38.3845L19.5187 42.4293L37.3833 57.3181V57.3129Z" fill="#F28A1F"/>
</g>
</svg>
